<svg xmlns="http://www.w3.org/2000/svg" width="137" height="142" viewBox="0 0 137 142">
  <defs>
    <style>
      .cls-1 {
        fill-rule: evenodd;
      }
    </style>
  </defs>
  <path id="SRP" class="cls-1" d="M45.425,95.411a18.116,18.116,0,0,0,6.413-3.491,14.8,14.8,0,0,0,3.938-5.406,17.365,17.365,0,0,0,1.35-6.907q0-6.831-3.9-10.548t-12-4.993l-5.175-.826a10.17,10.17,0,0,1-4.762-1.706,4.693,4.693,0,0,1-1.463-3.861A4.3,4.3,0,0,1,31.7,53.96a9.86,9.86,0,0,1,5.7-1.336A14.578,14.578,0,0,1,44.113,54a15.2,15.2,0,0,1,4.538,3.526l7.575-7.663A21.17,21.17,0,0,0,48.5,44.378,26.911,26.911,0,0,0,38.075,42.5a27.171,27.171,0,0,0-8.288,1.164,18,18,0,0,0-6.15,3.267,14.282,14.282,0,0,0-3.863,5.031,15.241,15.241,0,0,0-1.35,6.458q0,6.609,3.863,10.588t12.188,5.031l5.175,0.669q3.674,0.52,4.875,1.97a5.464,5.464,0,0,1,1.2,3.6A5.638,5.638,0,0,1,43.7,84.816q-2.025,1.709-6.225,1.709A16.927,16.927,0,0,1,24.35,80.578l-7.5,7.584a26.747,26.747,0,0,0,8.175,6.122,26.287,26.287,0,0,0,11.7,2.365A28.226,28.226,0,0,0,45.425,95.411Zm13.8-18.861H67.4l9.15,19.2H89.225L78.95,75.2a13.524,13.524,0,0,0,7.162-5.775,17.857,17.857,0,0,0,2.363-9.3A19.746,19.746,0,0,0,87.35,53.3a15.433,15.433,0,0,0-3.187-5.288A13.99,13.99,0,0,0,79.175,44.6a17.056,17.056,0,0,0-6.525-1.2H47.825v52.35h11.4v-19.2Zm0-9.6V53.3h12a5.8,5.8,0,0,1,4.012,1.313A4.924,4.924,0,0,1,76.7,58.474v3.3a4.921,4.921,0,0,1-1.463,3.862,5.789,5.789,0,0,1-4.012,1.313h-12Zm31.8,28.8v-18.9h13.35a16.794,16.794,0,0,0,6.6-1.237,14.64,14.64,0,0,0,4.988-3.413,15.024,15.024,0,0,0,3.187-5.25,21.151,21.151,0,0,0,0-13.612,14.987,14.987,0,0,0-3.187-5.287,14.655,14.655,0,0,0-4.988-3.413,16.794,16.794,0,0,0-6.6-1.238H79.624v52.35h11.4Zm0-42.45h12a5.8,5.8,0,0,1,4.013,1.313,4.924,4.924,0,0,1,1.462,3.862v3.3a4.921,4.921,0,0,1-1.462,3.862,5.791,5.791,0,0,1-4.013,1.313h-12V53.3Z"/>
</svg>
