<svg xmlns="http://www.w3.org/2000/svg" width="571" height="592" viewBox="0 0 571 592">
  <defs>
    <style>
      .cls-1 {
        fill-rule: evenodd;
      }
    </style>
  </defs>
  <path id="SRP" class="cls-1" d="M96.9,379.95a164.758,164.758,0,0,1-33.75-45.6h-5.1l3,71.4h4.2q3.9-9,8.1-9,2.4,0,24.45,4.5t39.15,4.5q33,0,53.25-19.65t20.25-52.05q0-19.8-8.1-34.2a41.342,41.342,0,0,0-9.15-11.55,95.648,95.648,0,0,0-11.1-8.7,71.12,71.12,0,0,0-13.5-6.6q-8.254-3.15-13.8-4.95t-23.25-6.6q-17.7-4.8-29.85-12.45T89.55,227.1q0-14.245,10.2-22.8t28.65-8.55q18.45,0,34.2,15.75t30.15,41.85h4.8l-2.1-60.6h-3.3q-3.3,6-7.5,6T163.2,194.1a127.389,127.389,0,0,0-33.15-4.65q-33,0-52.05,19.2t-19.05,45.9q0,32.7,18.6,48.3a88.186,88.186,0,0,0,19.65,12.6q10.35,4.8,33.3,11.25t35.4,15.15q12.446,8.7,12.45,25.05T166.8,391.35a45.1,45.1,0,0,1-26.55,8.1Q117.447,399.45,96.9,379.95Zm189.3-75.6q4.346,7.8,4.35,24.6v21.9q0,31.8,10.35,43.35t34.95,11.55q24.6,0,32.85-8.7t11.55-34.2l-5.1-.6q-2.7,15.9-5.85,20.85a9.69,9.69,0,0,1-8.55,4.95q-5.4,0-7.05-5.4t-1.65-21v-15.9q0-26.1-9.6-37.2t-33.9-14.4v-0.9q25.8-2.1,38.4-13.05t12.6-36.45q0-25.5-14.4-37.2-6.6-5.7-22.95-9.75t-55.35-4.05h-90.6v5.7h19.5v198.6h-19.5v5.7h97.5v-5.7h-19.5V296.55h15.9Q281.847,296.55,286.2,304.35Zm-22.05-105.9q17.4,0,25.35,7.65t7.95,31.35v8.7q0,23.7-8.25,34.2t-25.35,10.5h-9.6v-92.4h9.9Zm75.9,0h19.5v198.6h-19.5v5.7h115.5v-5.7h-37.5v-80.4h2.4q45.3,0,70.5-12.9,27-14.1,27-51.3,0-33.6-22.2-46.65t-67.5-13.05h-88.2v5.7Zm86.1,0q17.1,0,23.55,10.2t6.45,35.7v14.4q0,27.6-6.9,39.9t-24.9,12.3h-6.3V198.45h8.1Z"/>
</svg>
